<svg class="img-fluid"  xmlns="http://www.w3.org/2000/svg" xmlns:xlink="http://www.w3.org/1999/xlink" viewBox="0 0 945 547" width="945" height="547">
    <path d="M938.026,546.7h-945v-547h945V91.431c-6.544-.7-704.406-75.059-815.356-86.652a192.587,192.587,0,0,0-19.9-1.084A140.09,140.09,0,0,0,77.861,5.8,101.773,101.773,0,0,0,57.545,11.63a82.3,82.3,0,0,0-16.174,8.793A75.949,75.949,0,0,0,28.888,31.433,80.956,80.956,0,0,0,15.8,51.085,97.987,97.987,0,0,0,8.791,71.466,111.373,111.373,0,0,0,6.2,89.8a92.166,92.166,0,0,0,.155,13.5c.527,5.521,2.382,25.126,4.95,52.261l.016.168c8.88,93.852,25.41,268.546,29.94,314.52,2.777,28.186,9.9,47.513,21.779,59.085a45.428,45.428,0,0,0,8.973,6.8,49.838,49.838,0,0,0,10.137,4.39,79.32,79.32,0,0,0,23.275,3.108c9.842.042,87.458.063,230.692.063,244.415,0,598.724-.063,601.909-.063v3.062Z" transform="translate(6.974 0.305)" fill="#fff" />
</svg>